<svg width="32" height="32" viewBox="0 0 32 32" fill="none" xmlns="http://www.w3.org/2000/svg">
  <path d="M29.8965 6.46029C31.21 4.70207 31.9962 2.8766 32 1.57244C31.9984 1.15012 31.9137 0.820078 31.7525 0.574222C31.7356 0.544157 31.6892 0.465464 31.6072 0.387922C31.5258 0.307085 31.4526 0.263895 31.4367 0.255163C31.1788 0.0830327 30.8472 0 30.4248 0C29.1239 0.00219608 27.2979 0.787869 25.5391 2.10353C24.1176 3.16732 22.6959 4.66546 20.7278 6.74003C20.394 7.09187 20.0426 7.4618 19.6711 7.84973L15.8591 6.70724L15.8705 6.69631C16.0289 6.53621 16.1191 6.31603 16.1169 6.09966C16.1191 5.87127 16.0268 5.65109 15.8678 5.49265L15.1794 4.80314C15.0204 4.64303 14.8007 4.55127 14.5735 4.55127C14.344 4.55127 14.1298 4.63979 13.9697 4.80152L12.9398 5.832L12.3945 5.66918C12.512 5.52 12.577 5.3337 12.5748 5.15012C12.577 4.91843 12.4873 4.70264 12.3262 4.54254L11.6345 3.85082C11.4766 3.69239 11.258 3.60167 11.0286 3.60167C10.8002 3.60167 10.5865 3.69077 10.4281 3.85192L9.48291 4.7966L5.60694 3.63556C5.52009 3.60988 5.42827 3.59624 5.32992 3.59624C5.05457 3.59953 4.79941 3.7017 4.61311 3.88638L3.25044 5.24957C3.09578 5.40418 3.00893 5.61344 3.0106 5.81176C3.00569 6.10405 3.16741 6.37396 3.42639 6.51273L11.5772 11.0662C11.6171 11.0886 11.7324 11.1739 11.775 11.2165L14.0987 13.5397C11.9252 15.8295 9.98884 18.0473 8.47982 19.9765C8.33886 20.1557 8.20552 20.3305 8.07439 20.5037L1.76872 19.9311C1.73813 19.9273 1.70368 19.9245 1.65996 19.9245C1.37092 19.9306 1.08846 20.0448 0.878683 20.2475L0.243232 20.8824C0.0864222 21.0359 -0.00210057 21.2435 9.55106e-05 21.444C-0.00481952 21.75 0.180383 22.033 0.4585 22.157L4.89447 24.2638C4.93269 24.283 5.03214 24.3535 5.0644 24.3857L5.43266 24.7512C5.31737 25.0758 5.25891 25.3571 5.25562 25.6041C5.25452 25.9346 5.36108 26.2177 5.5649 26.4215L5.58074 26.4352L5.58508 26.4384C5.79434 26.6411 6.06534 26.7444 6.40082 26.7444C6.64234 26.7406 6.92098 26.6832 7.24662 26.5685L7.62032 26.9417C7.64929 26.9723 7.71867 27.0695 7.73671 27.1083L9.83914 31.5345C9.96756 31.817 10.2445 32 10.5461 32H10.5505C10.7592 32 10.9586 31.9164 11.111 31.7635L11.7618 31.1105C11.9546 30.9073 12.0683 30.627 12.0726 30.3315C12.0726 30.2954 12.071 30.2675 12.0699 30.2522L11.4957 23.9236C11.6683 23.7935 11.8432 23.6597 12.0229 23.5198C13.9548 22.0085 16.1731 20.0705 18.4586 17.9003L20.784 20.2279C20.8217 20.2639 20.9096 20.3792 20.9353 20.4273L25.4801 28.5633C25.6188 28.8261 25.886 28.9884 26.1822 28.9884C26.3936 28.9884 26.5947 28.9048 26.7488 28.7497L28.1212 27.3782C28.2994 27.192 28.3993 26.939 28.402 26.6625C28.402 26.5697 28.389 26.4795 28.3649 26.3948L27.2039 22.5178L28.1485 21.5715C28.3075 21.4135 28.3977 21.1939 28.3977 20.9683C28.3977 20.7415 28.3097 20.5284 28.1497 20.3661L27.4568 19.6739C27.2984 19.5149 27.0793 19.4242 26.8537 19.4242C26.6624 19.4242 26.4756 19.4882 26.3297 19.6035L26.1674 19.0603L27.1984 18.0293C27.3568 17.8703 27.447 17.6507 27.447 17.4245C27.447 17.1967 27.359 16.9831 27.1984 16.823L26.5088 16.1334C26.3498 15.9722 26.1291 15.8809 25.9023 15.8809C25.6745 15.8809 25.4538 15.9733 25.298 16.1323L25.2909 16.1388L24.149 12.3273C24.5435 11.9514 24.9177 11.5935 25.2756 11.2564C27.3428 9.29485 28.8355 7.87864 29.8965 6.46029Z" fill="white" />
</svg>
  