<svg width="32" height="28" viewBox="0 0 32 28" fill="none" xmlns="http://www.w3.org/2000/svg">
  <path d="M9.10127 0C7.08068 0 6.0088 1.15414 5.51396 2.50509L2.8872 9.60134C1.8459 9.74107 0 11.0199 0 13.4425V22.4667H2.55675V25.3527C2.55675 28.9033 7.35941 28.8615 7.35941 25.3527V22.4667H15.9986H16.0014H24.6406V25.3527C24.6406 28.8615 29.4433 28.9033 29.4433 25.3527V22.4667H32V13.4425C32 11.0199 30.1541 9.74107 29.1128 9.60134L26.4833 2.50509C25.9884 1.15414 24.9166 0 22.896 0H19.1827H12.8594H9.10127ZM9.07046 2.5842H15.993H15.9986H16.0014H22.9268C23.7927 2.59264 24.1636 3.15922 24.411 3.94369L26.3909 9.5281H16.0014H15.9986H15.993H5.60637L7.58625 3.94369C7.83367 3.15922 8.20444 2.59264 9.07046 2.5842ZM5.0351 12.2442C6.26037 12.2442 7.253 13.3138 7.253 14.635C7.253 15.9564 6.26037 17.0288 5.0351 17.0288C3.80992 17.0288 2.81719 15.9564 2.81719 14.635C2.81719 13.3138 3.80992 12.2442 5.0351 12.2442ZM26.9649 12.2442C28.1902 12.2442 29.1829 13.3138 29.1828 14.635C29.1828 15.9564 28.1902 17.0288 26.9649 17.0288C25.7398 17.0288 24.7442 15.9564 24.7442 14.635C24.7442 13.3138 25.7398 12.2442 26.9649 12.2442Z" fill="white" />
</svg>
  