<svg width="54" height="24" viewBox="0 0 54 24" fill="none" xmlns="http://www.w3.org/2000/svg">
  <path d="M0.113636 18V0.545454H2.22727V16.125H10.3409V18H0.113636ZM18.6591 18.2727C17.4773 18.2727 16.4403 17.9915 15.5483 17.429C14.6619 16.8665 13.9688 16.0795 13.4688 15.0682C12.9744 14.0568 12.7273 12.875 12.7273 11.5227C12.7273 10.1591 12.9744 8.96875 13.4688 7.9517C13.9688 6.93466 14.6619 6.14489 15.5483 5.58239C16.4403 5.01989 17.4773 4.73864 18.6591 4.73864C19.8409 4.73864 20.875 5.01989 21.7614 5.58239C22.6534 6.14489 23.3466 6.93466 23.8409 7.9517C24.3409 8.96875 24.5909 10.1591 24.5909 11.5227C24.5909 12.875 24.3409 14.0568 23.8409 15.0682C23.3466 16.0795 22.6534 16.8665 21.7614 17.429C20.875 17.9915 19.8409 18.2727 18.6591 18.2727ZM18.6591 16.4659C19.5568 16.4659 20.2955 16.2358 20.875 15.7756C21.4545 15.3153 21.8835 14.7102 22.1619 13.9602C22.4403 13.2102 22.5795 12.3977 22.5795 11.5227C22.5795 10.6477 22.4403 9.83239 22.1619 9.0767C21.8835 8.32102 21.4545 7.71023 20.875 7.24432C20.2955 6.77841 19.5568 6.54545 18.6591 6.54545C17.7614 6.54545 17.0227 6.77841 16.4432 7.24432C15.8636 7.71023 15.4347 8.32102 15.1562 9.0767C14.8778 9.83239 14.7386 10.6477 14.7386 11.5227C14.7386 12.3977 14.8778 13.2102 15.1562 13.9602C15.4347 14.7102 15.8636 15.3153 16.4432 15.7756C17.0227 16.2358 17.7614 16.4659 18.6591 16.4659ZM32.9453 23.1818C31.9737 23.1818 31.1385 23.0568 30.4396 22.8068C29.7408 22.5625 29.1584 22.2386 28.6925 21.8352C28.2322 21.4375 27.8658 21.0114 27.593 20.5568L29.1953 19.4318C29.3771 19.6705 29.6072 19.9432 29.8857 20.25C30.1641 20.5625 30.5447 20.8324 31.0277 21.0597C31.5163 21.2926 32.1555 21.4091 32.9453 21.4091C34.0021 21.4091 34.8743 21.1534 35.5618 20.642C36.2493 20.1307 36.593 19.3295 36.593 18.2386V15.5795H36.4226C36.2749 15.8182 36.0646 16.1136 35.7919 16.4659C35.5249 16.8125 35.1385 17.1222 34.6328 17.3949C34.1328 17.6619 33.4567 17.7955 32.6044 17.7955C31.5476 17.7955 30.5987 17.5455 29.7578 17.0455C28.9226 16.5455 28.2607 15.8182 27.772 14.8636C27.2891 13.9091 27.0476 12.75 27.0476 11.3864C27.0476 10.0455 27.2834 8.87784 27.755 7.88352C28.2266 6.88352 28.8828 6.1108 29.7237 5.56534C30.5646 5.0142 31.5362 4.73864 32.6385 4.73864C33.4908 4.73864 34.1669 4.88068 34.6669 5.16477C35.1726 5.44318 35.5589 5.76136 35.826 6.11932C36.0987 6.47159 36.3089 6.76136 36.4567 6.98864H36.6612V4.90909H38.6044V18.375C38.6044 19.5 38.3487 20.4148 37.8374 21.1193C37.3317 21.8295 36.6499 22.3494 35.7919 22.679C34.9396 23.0142 33.9908 23.1818 32.9453 23.1818ZM32.8771 15.9886C33.6839 15.9886 34.3658 15.804 34.9226 15.4347C35.4794 15.0653 35.9027 14.5341 36.1925 13.8409C36.4822 13.1477 36.6271 12.3182 36.6271 11.3523C36.6271 10.4091 36.4851 9.5767 36.201 8.85511C35.9169 8.13352 35.4964 7.56818 34.9396 7.15909C34.3828 6.75 33.6953 6.54545 32.8771 6.54545C32.0249 6.54545 31.3146 6.76136 30.7464 7.19318C30.1839 7.625 29.7607 8.20455 29.4766 8.93182C29.1982 9.65909 29.0589 10.4659 29.0589 11.3523C29.0589 12.2614 29.201 13.0653 29.4851 13.7642C29.7749 14.4574 30.201 15.0028 30.7635 15.4006C31.3317 15.7926 32.0362 15.9886 32.8771 15.9886ZM47.6044 18.2727C46.4226 18.2727 45.3857 17.9915 44.4936 17.429C43.6072 16.8665 42.9141 16.0795 42.4141 15.0682C41.9197 14.0568 41.6726 12.875 41.6726 11.5227C41.6726 10.1591 41.9197 8.96875 42.4141 7.9517C42.9141 6.93466 43.6072 6.14489 44.4936 5.58239C45.3857 5.01989 46.4226 4.73864 47.6044 4.73864C48.7862 4.73864 49.8203 5.01989 50.7067 5.58239C51.5987 6.14489 52.2919 6.93466 52.7862 7.9517C53.2862 8.96875 53.5362 10.1591 53.5362 11.5227C53.5362 12.875 53.2862 14.0568 52.7862 15.0682C52.2919 16.0795 51.5987 16.8665 50.7067 17.429C49.8203 17.9915 48.7862 18.2727 47.6044 18.2727ZM47.6044 16.4659C48.5021 16.4659 49.2408 16.2358 49.8203 15.7756C50.3999 15.3153 50.8288 14.7102 51.1072 13.9602C51.3857 13.2102 51.5249 12.3977 51.5249 11.5227C51.5249 10.6477 51.3857 9.83239 51.1072 9.0767C50.8288 8.32102 50.3999 7.71023 49.8203 7.24432C49.2408 6.77841 48.5021 6.54545 47.6044 6.54545C46.7067 6.54545 45.968 6.77841 45.3885 7.24432C44.8089 7.71023 44.38 8.32102 44.1016 9.0767C43.8232 9.83239 43.6839 10.6477 43.6839 11.5227C43.6839 12.3977 43.8232 13.2102 44.1016 13.9602C44.38 14.7102 44.8089 15.3153 45.3885 15.7756C45.968 16.2358 46.7067 16.4659 47.6044 16.4659Z" fill="#FF2E00" />
</svg>
  